# xmcd
# 
# Track frame offsets:
#     150
#     25976
#     50812
#     68533
#     88711
#     106447
#     121064
#     141600
#     158725
#     180418
#     205166
# 
# Disc length: 2925
# 
# Revision: 1
# Processed by: cddbd v1.5.2PL0 Copyright (c) Steve Scherf et al.
# Submitted via: fre:ac v1.1beta1pre5
# 
DISCID=960b6b0b
DTITLE=Viktoria Tolstoy - Meet Me At The Movies
DYEAR=2017
DGENRE=Jazz
TTITLE0=Calling You
TTITLE1=As Time Goes By
TTITLE2=En Man (Marlowe's Theme)
TTITLE3=Out Here On My Own
TTITLE4=Why Should I Care
TTITLE5=The Book Of Love
TTITLE6=Love Song For A Vampire
TTITLE7=Kiss From A Rose
TTITLE8=Angel
TTITLE9=New World
TTITLE10=Smile
EXTD=YEAR: 2017
EXTT0=
EXTT1=
EXTT2=
EXTT3=
EXTT4=
EXTT5=
EXTT6=
EXTT7=
EXTT8=
EXTT9=
EXTT10=
PLAYORDER=
